<svg width="20" height="20" viewBox="0 0 20 20" fill="none" xmlns="http://www.w3.org/2000/svg">
<path d="M16.1667 9.44663V15.9167C16.1667 17.0673 15.2339 18 14.0833 18H11.5833C11.3532 18 11.1667 17.8135 11.1667 17.5833V12.5833C11.1667 12.3532 10.9801 12.1667 10.75 12.1667H8.25001C8.01989 12.1667 7.83334 12.3532 7.83334 12.5833V17.5833C7.83334 17.8135 7.6468 18 7.41668 18H4.91668C3.76608 18 2.83335 17.0673 2.83335 15.9167V9.44663L2.68156 9.57164C2.50392 9.71793 2.24133 9.69251 2.09504 9.51488C1.94875 9.33724 1.97416 9.07465 2.1518 8.92836L9.23513 3.09503C9.38899 2.96832 9.61103 2.96832 9.76489 3.09503L16.8482 8.92836C17.0259 9.07465 17.0513 9.33724 16.905 9.51488C16.7587 9.69251 16.4961 9.71793 16.3185 9.57164L16.1667 9.44663ZM15.3389 8.76496L9.50001 3.95644L3.6611 8.76496C3.66477 8.7872 3.66668 8.81005 3.66668 8.83333V15.9167C3.66668 16.607 4.22632 17.1667 4.91668 17.1667H7.00001V12.5833C7.00001 11.893 7.55966 11.3333 8.25001 11.3333H10.75C11.4404 11.3333 12 11.893 12 12.5833V17.1667H14.0833C14.7737 17.1667 15.3333 16.607 15.3333 15.9167V8.83333C15.3333 8.81005 15.3353 8.7872 15.3389 8.76496Z" fill="black"/>
</svg>
