<svg width="14" height="14" viewBox="0 0 14 14" fill="none" xmlns="http://www.w3.org/2000/svg">
<path d="M12.7144 5.5537C12.7144 3.26846 11.4876 1.93763 9.5001 1.93763C8.44043 1.93763 7.73299 2.34693 7.31954 3.18417C7.18793 3.45069 6.81228 3.45069 6.68067 3.18417C6.26722 2.34693 5.55978 1.93763 4.5001 1.93763C2.51259 1.93763 1.28582 3.26846 1.28582 5.5537C1.28582 7.28879 3.17772 9.45833 7.0001 11.9928C10.8225 9.45833 12.7144 7.28879 12.7144 5.5537ZM9.5001 1.21442C11.8935 1.21442 13.4287 2.87976 13.4287 5.5537C13.4287 7.64665 11.337 10.0137 7.19412 12.7278C7.07606 12.8052 6.92415 12.8052 6.80609 12.7278C2.66323 10.0137 0.571533 7.64665 0.571533 5.5537C0.571533 2.87976 2.10667 1.21442 4.5001 1.21442C5.59132 1.21442 6.43559 1.59296 7.0001 2.33954C7.56462 1.59296 8.40889 1.21442 9.5001 1.21442Z" fill="#FF2E47"/>
<path d="M12.7144 5.5537C12.7144 3.26846 11.4876 1.93763 9.5001 1.93763C8.44043 1.93763 7.73299 2.34693 7.31954 3.18417C7.18793 3.45069 6.81228 3.45069 6.68067 3.18417C6.26722 2.34693 5.55978 1.93763 4.5001 1.93763C2.51259 1.93763 1.28582 3.26846 1.28582 5.5537C1.28582 7.28879 3.17772 9.45833 7.0001 11.9928C10.8225 9.45833 12.7144 7.28879 12.7144 5.5537Z" fill="#FF2E47"/>
</svg>
